<svg width="15" height="20" viewBox="0 0 15 20" xmlns="http://www.w3.org/2000/svg">
<path d="M1.86523 1.875V17.5725L6.2683 14.0492C6.65062 13.7434 7.12564 13.5767 7.61523 13.5767C8.10483 13.5767 8.57985 13.7434 8.96217 14.0492L13.3652 17.5711V1.875H1.86523ZM1.14648 0.4375H14.084C14.2746 0.4375 14.4574 0.513225 14.5922 0.648017C14.727 0.782809 14.8027 0.965626 14.8027 1.15625V19.0675C14.8025 19.2027 14.7642 19.3352 14.6921 19.4496C14.62 19.5641 14.5171 19.6558 14.3952 19.7144C14.2733 19.7729 14.1373 19.7959 14.0029 19.7806C13.8685 19.7654 13.7412 19.7125 13.6355 19.6281L8.06374 15.1719C7.93637 15.0702 7.77822 15.0148 7.61523 15.0148C7.45225 15.0148 7.2941 15.0702 7.16673 15.1719L1.59498 19.6281C1.4893 19.7125 1.36195 19.7654 1.22756 19.7806C1.09318 19.7959 0.957217 19.7729 0.835303 19.7144C0.713388 19.6558 0.610469 19.5641 0.538372 19.4496C0.466275 19.3352 0.427927 19.2027 0.427734 19.0675V1.15625C0.427734 0.965626 0.50346 0.782809 0.638252 0.648017C0.773043 0.513225 0.95586 0.4375 1.14648 0.4375Z"/>
</svg>
