<svg width="28" height="26" viewBox="0 0 28 26" xmlns="http://www.w3.org/2000/svg">
<g>
<path fill-rule="evenodd" clip-rule="evenodd" d="M7.99175 17.3333C7.99175 16.7375 8.5055 16.25 9.13342 16.25C9.76134 16.25 10.2751 16.7375 10.2751 17.3333C10.2751 17.9292 9.76134 18.4167 9.13342 18.4167C8.5055 18.4167 7.99175 17.9292 7.99175 17.3333ZM13.7001 16.25H18.2668C18.8947 16.25 19.4085 16.7375 19.4085 17.3333C19.4085 17.9292 18.8947 18.4167 18.2668 18.4167H13.7001C13.0722 18.4167 12.5584 17.9292 12.5584 17.3333C12.5584 16.7375 13.0722 16.25 13.7001 16.25ZM20.5502 21.6667H6.85007C6.22101 21.6667 5.7084 21.1803 5.7084 20.5833V14.0833H21.6918V20.5833C21.6918 21.1803 21.1792 21.6667 20.5502 21.6667ZM6.85007 6.49997H7.99175V7.58331C7.99175 8.17914 8.5055 8.66664 9.13342 8.66664C9.76134 8.66664 10.2751 8.17914 10.2751 7.58331V6.49997H17.1251V7.58331C17.1251 8.17914 17.6389 8.66664 18.2668 8.66664C18.8947 8.66664 19.4085 8.17914 19.4085 7.58331V6.49997H20.5502C21.1792 6.49997 21.6918 6.98639 21.6918 7.58331V11.9166H5.7084V7.58331C5.7084 6.98639 6.22101 6.49997 6.85007 6.49997ZM20.5502 4.3333H19.4085V3.24996C19.4085 2.65413 18.8947 2.16663 18.2668 2.16663C17.6389 2.16663 17.1251 2.65413 17.1251 3.24996V4.3333H10.2751V3.24996C10.2751 2.65413 9.76134 2.16663 9.13342 2.16663C8.5055 2.16663 7.99175 2.65413 7.99175 3.24996V4.3333H6.85007C4.96174 4.3333 3.42505 5.79147 3.42505 7.58331V20.5833C3.42505 22.3752 4.96174 23.8333 6.85007 23.8333H20.5502C22.4385 23.8333 23.9752 22.3752 23.9752 20.5833V7.58331C23.9752 5.79147 22.4385 4.3333 20.5502 4.3333Z"/>
</g>
</svg>
