<svg width="28" height="26" viewBox="0 0 28 26" xmlns="http://www.w3.org/2000/svg">
<g>
<path fill-rule="evenodd" clip-rule="evenodd" d="M16.3594 21.6672C16.2829 21.6672 16.2041 21.664 16.1254 21.6564C15.1207 21.5621 14.3329 20.8894 14.116 19.9415L11.0529 6.51679L7.89845 13.4306C7.71692 13.8271 7.30478 14.0839 6.85039 14.0839H3.42537C2.79402 14.0839 2.28369 13.5985 2.28369 13.0005C2.28369 12.4015 2.79402 11.9172 3.42537 11.9172H6.10145L8.96249 5.64579C9.36778 4.76179 10.2606 4.24721 11.2755 4.34362C12.2802 4.43787 13.068 5.11062 13.2849 6.05854L16.348 19.4832L19.5024 12.5694C19.684 12.1729 20.095 11.9172 20.5505 11.9172H23.9755C24.6069 11.9172 25.1172 12.4015 25.1172 13.0005C25.1172 13.5985 24.6069 14.0839 23.9755 14.0839H21.2994L18.4384 20.3542C18.0651 21.17 17.2647 21.6672 16.3594 21.6672Z"/>
</g>
</svg>
